<svg width="395" height="191" viewBox="0 0 395 191" fill="none" xmlns="http://www.w3.org/2000/svg">
<path d="M331.5 50L394.6 50.3L346.5 94.9H279L331.5 50Z" fill="#418F92"/>
<path fill-rule="evenodd" clip-rule="evenodd" d="M279 11H346.5L394.6 55.5L331.5 55.9L279 11Z" fill="#418F92"/>
<path d="M109.6 0L219.2 190.5H0L109.6 0Z" fill="#418F92"/>
<path d="M110.6 144.7L79.5 113.2H140L110.6 144.7Z" fill="#DDF5E7"/>
<path d="M79.8 113.2L109.2 146.5L111.3 187.6L79.8 155.7V113.2Z" fill="#DDF5E7"/>
<path d="M139.9 112.8L139.4 157.3L110.7 187.2L111.8 146.7L139.9 112.8Z" fill="#DDF5E7"/>
<path d="M231 11H279V179H241.957C241.957 179 231.07 145.117 231 120.964C230.93 96.4367 241.957 61.9091 241.957 61.9091L231 11Z" fill="#DDF5E7"/>
<path d="M228.05 11C228.05 11 240.003 38.4402 240.941 63C242.055 92.1941 227.028 99.7794 228.05 129C228.92 153.903 240.941 182 240.941 182" stroke="#418F92" stroke-width="6" stroke-linecap="square"/>
</svg>
